<svg xmlns="http://www.w3.org/2000/svg" xmlns:xlink="http://www.w3.org/1999/xlink" version="1.1" x="0px" y="0px" viewBox="0 0 100 100" enable-background="new 0 0 100 100" xml:space="preserve"><g><circle cx="33.929" cy="21.406" r="3.214"></circle><rect x="43.571" y="63.191" width="25.715" height="6.429"></rect><circle cx="33.929" cy="50.334" r="3.214"></circle><rect x="43.571" y="76.048" width="25.715" height="6.429"></rect><rect x="43.571" y="50.334" width="25.715" height="6.43"></rect><path d="M82.143,18.845v-0.004l-0.303-0.306c-0.01-0.009-0.02-0.019-0.027-0.028L81.5,18.191L68.643,5.334H17.857v13.511   C9.905,26.961,5,38.074,5,50.334s4.905,23.373,12.857,31.489v13.511h64.286V81.823C90.096,73.707,95,62.594,95,50.334   S90.096,26.961,82.143,18.845z M75.714,88.906H24.286V11.763h38.571V24.62h12.856V88.906z"></path><circle cx="33.929" cy="79.262" r="3.215"></circle><rect x="43.571" y="37.477" width="25.715" height="6.428"></rect></g></svg>